<svg xmlns="http://www.w3.org/2000/svg" xmlns:xlink="http://www.w3.org/1999/xlink" width="500" zoomAndPan="magnify" viewBox="0 0 375 98.249997" height="131" preserveAspectRatio="xMidYMid meet" version="1.0"><defs><g/></defs><g fill="#a86b01" fill-opacity="1"><g transform="translate(97.838532, 67.134487)"><g><path d="M 13.949219 0.671875 C 20.8125 0.671875 27.449219 -3.355469 27.449219 -11.710938 C 27.449219 -24.765625 8.953125 -24.691406 8.953125 -33.640625 C 8.953125 -37.074219 11.488281 -38.789062 14.472656 -38.789062 C 18.425781 -38.789062 22.304688 -35.730469 23.871094 -31.480469 L 24.167969 -31.554688 L 23.796875 -41.847656 C 23.570312 -41.550781 23.273438 -41.476562 22.902344 -41.476562 C 21.257812 -41.476562 18.351562 -43.191406 13.949219 -43.191406 C 7.011719 -43.191406 2.3125 -38.863281 2.3125 -32.523438 C 2.3125 -19.84375 20.886719 -19.992188 20.886719 -10.292969 C 20.886719 -6.414062 18.050781 -4.328125 14.695312 -4.328125 C 10.367188 -4.328125 5.148438 -7.757812 4.328125 -15.066406 L 4.101562 -15.066406 L 1.34375 -4.996094 C 4.328125 -1.195312 9.175781 0.671875 13.949219 0.671875 Z M 13.949219 0.671875 "/></g></g></g><g fill="#ffffff" fill-opacity="1"><g transform="translate(128.343069, 67.134487)"><g><path d="M -1.492188 -0.222656 L -1.492188 0 L 9.773438 0 L 9.773438 -0.222656 C 7.609375 -1.117188 7.234375 -3.507812 8.503906 -8.800781 L 8.875 -10.441406 L 21.558594 -10.441406 L 22.003906 -8.800781 C 23.421875 -3.429688 22.824219 -1.042969 20.738281 -0.222656 L 20.738281 0 L 33.640625 0 L 33.640625 -0.222656 C 31.628906 -0.96875 30.582031 -2.835938 29.390625 -7.609375 L 19.992188 -42.519531 L 9.101562 -42.519531 L 9.101562 -42.296875 C 10.816406 -41.625 10.964844 -39.011719 9.472656 -33.34375 L 2.761719 -7.609375 C 1.417969 -2.535156 0.449219 -0.894531 -1.492188 -0.222656 Z M 9.996094 -14.917969 L 14.917969 -35.132812 L 20.4375 -14.917969 Z M 9.996094 -14.917969 "/></g></g></g><g fill="#ffffff" fill-opacity="1"><g transform="translate(162.507781, 67.134487)"><g><path d="M 1.042969 -0.222656 L 1.042969 0 L 14.171875 0 L 14.171875 -0.222656 C 11.785156 -1.042969 10.964844 -3.207031 10.964844 -8.800781 L 10.964844 -24.46875 C 11.488281 -24.988281 12.160156 -25.289062 12.980469 -25.289062 C 15.664062 -25.289062 17.902344 -23.199219 20.4375 -23.199219 C 23.570312 -23.199219 26.035156 -26.40625 26.703125 -29.242188 L 26.480469 -29.316406 C 25.882812 -28.347656 24.914062 -27.898438 23.722656 -27.898438 C 21.257812 -27.898438 18.945312 -29.6875 16.261719 -29.6875 C 14.023438 -29.6875 12.160156 -28.421875 11.113281 -26.40625 L 10.964844 -26.40625 L 10.964844 -38.265625 L 19.320312 -38.265625 C 22.453125 -38.265625 23.871094 -37.222656 23.648438 -35.132812 L 23.871094 -35.058594 L 27.824219 -43.117188 C 27.375 -42.667969 25.808594 -42.519531 24.765625 -42.519531 L 1.042969 -42.519531 L 1.042969 -42.296875 C 3.429688 -41.476562 4.25 -39.3125 4.25 -33.71875 L 4.25 -8.800781 C 4.25 -3.207031 3.429688 -1.042969 1.042969 -0.222656 Z M 1.042969 -0.222656 "/></g></g></g><g fill="#ffffff" fill-opacity="1"><g transform="translate(192.793569, 67.134487)"><g><path d="M 1.042969 -0.222656 L 1.042969 0 L 14.171875 0 L 14.171875 -0.222656 C 11.785156 -1.042969 10.964844 -3.207031 10.964844 -8.800781 L 10.964844 -33.71875 C 10.964844 -39.3125 11.785156 -41.476562 14.171875 -42.296875 L 14.171875 -42.519531 L 1.042969 -42.519531 L 1.042969 -42.296875 C 3.429688 -41.476562 4.25 -39.3125 4.25 -33.71875 L 4.25 -8.800781 C 4.25 -3.207031 3.429688 -1.042969 1.042969 -0.222656 Z M 1.042969 -0.222656 "/></g></g></g><g fill="#ffffff" fill-opacity="1"><g transform="translate(210.025262, 67.134487)"><g><path d="M 1.042969 -0.222656 L 1.042969 0 L 14.171875 0 L 14.171875 -0.222656 C 11.785156 -1.042969 10.964844 -3.207031 10.964844 -8.800781 L 10.964844 -26.855469 C 16.410156 -22.902344 20.664062 -13.652344 22.453125 -6.117188 C 23.199219 -2.984375 22.601562 -0.96875 20.960938 -0.222656 L 21.035156 0 L 33.71875 0 L 33.71875 -0.222656 C 32.074219 -0.96875 30.734375 -3.132812 29.539062 -6.9375 C 27.675781 -12.753906 24.46875 -19.097656 21.183594 -23.199219 C 26.703125 -22.976562 31.179688 -27.078125 31.179688 -32.597656 C 31.179688 -38.265625 26.40625 -42.519531 19.171875 -42.519531 L 1.042969 -42.519531 L 1.042969 -42.296875 C 3.429688 -41.476562 4.25 -39.3125 4.25 -33.71875 L 4.25 -8.800781 C 4.25 -3.207031 3.429688 -1.042969 1.042969 -0.222656 Z M 10.964844 -36.925781 L 10.964844 -38.417969 L 15.890625 -38.417969 C 20.511719 -38.417969 23.796875 -35.730469 23.796875 -32.152344 C 23.796875 -29.539062 22.003906 -27.226562 18.648438 -27.226562 C 14.695312 -27.226562 10.964844 -31.253906 10.964844 -36.925781 Z M 10.964844 -36.925781 "/></g></g></g><g fill="#ffffff" fill-opacity="1"><g transform="translate(245.010508, 67.134487)"><g><path d="M -1.492188 -0.222656 L -1.492188 0 L 9.773438 0 L 9.773438 -0.222656 C 7.609375 -1.117188 7.234375 -3.507812 8.503906 -8.800781 L 8.875 -10.441406 L 21.558594 -10.441406 L 22.003906 -8.800781 C 23.421875 -3.429688 22.824219 -1.042969 20.738281 -0.222656 L 20.738281 0 L 33.640625 0 L 33.640625 -0.222656 C 31.628906 -0.96875 30.582031 -2.835938 29.390625 -7.609375 L 19.992188 -42.519531 L 9.101562 -42.519531 L 9.101562 -42.296875 C 10.816406 -41.625 10.964844 -39.011719 9.472656 -33.34375 L 2.761719 -7.609375 C 1.417969 -2.535156 0.449219 -0.894531 -1.492188 -0.222656 Z M 9.996094 -14.917969 L 14.917969 -35.132812 L 20.4375 -14.917969 Z M 9.996094 -14.917969 "/></g></g></g><g fill="#ffffff" fill-opacity="1"><g transform="translate(86.319614, 92.022643)"><g><path d="M 12.078125 -13.140625 L 12.078125 -9.640625 L 10.046875 -9.640625 L 9.953125 -11.109375 L 7.53125 -11.109375 L 7.53125 -1.84375 L 8.9375 -1.578125 L 8.9375 0 L 3.484375 0 L 3.484375 -1.578125 L 4.890625 -1.84375 L 4.890625 -11.109375 L 2.484375 -11.109375 L 2.375 -9.640625 L 0.359375 -9.640625 L 0.359375 -13.140625 Z M 12.078125 -13.140625 "/></g></g></g><g fill="#ffffff" fill-opacity="1"><g transform="translate(103.020793, 92.022643)"><g><path d="M 0.375 -1.578125 L 1.3125 -1.71875 L 5.3125 -13.140625 L 8 -13.140625 L 11.984375 -1.71875 L 12.921875 -1.578125 L 12.921875 0 L 8.4375 0 L 8.4375 -1.578125 L 9.34375 -1.734375 L 8.765625 -3.546875 L 4.515625 -3.546875 L 3.9375 -1.734375 L 4.84375 -1.578125 L 4.84375 0 L 0.375 0 Z M 5.140625 -5.484375 L 8.15625 -5.484375 L 6.671875 -10.125 L 6.609375 -10.125 Z M 5.140625 -5.484375 "/></g></g></g><g fill="#ffffff" fill-opacity="1"><g transform="translate(120.570396, 92.022643)"><g><path d="M 12.078125 -13.140625 L 12.078125 -9.640625 L 10.046875 -9.640625 L 9.953125 -11.109375 L 7.53125 -11.109375 L 7.53125 -1.84375 L 8.9375 -1.578125 L 8.9375 0 L 3.484375 0 L 3.484375 -1.578125 L 4.890625 -1.84375 L 4.890625 -11.109375 L 2.484375 -11.109375 L 2.375 -9.640625 L 0.359375 -9.640625 L 0.359375 -13.140625 Z M 12.078125 -13.140625 "/></g></g></g><g fill="#ffffff" fill-opacity="1"><g transform="translate(137.271572, 92.022643)"><g><path d="M 12.078125 -13.140625 L 12.078125 -9.640625 L 10.046875 -9.640625 L 9.953125 -11.109375 L 7.53125 -11.109375 L 7.53125 -1.84375 L 8.9375 -1.578125 L 8.9375 0 L 3.484375 0 L 3.484375 -1.578125 L 4.890625 -1.84375 L 4.890625 -11.109375 L 2.484375 -11.109375 L 2.375 -9.640625 L 0.359375 -9.640625 L 0.359375 -13.140625 Z M 12.078125 -13.140625 "/></g></g></g><g fill="#ffffff" fill-opacity="1"><g transform="translate(153.972753, 92.022643)"><g><path d="M 12.515625 -6.46875 C 12.515625 -4.539062 11.960938 -2.945312 10.859375 -1.6875 C 9.765625 -0.4375 8.328125 0.1875 6.546875 0.1875 C 4.765625 0.1875 3.328125 -0.4375 2.234375 -1.6875 C 1.148438 -2.945312 0.609375 -4.539062 0.609375 -6.46875 L 0.609375 -6.671875 C 0.609375 -8.585938 1.148438 -10.175781 2.234375 -11.4375 C 3.328125 -12.695312 4.757812 -13.328125 6.53125 -13.328125 C 8.3125 -13.328125 9.753906 -12.695312 10.859375 -11.4375 C 11.960938 -10.175781 12.515625 -8.585938 12.515625 -6.671875 Z M 9.890625 -6.6875 C 9.890625 -8.050781 9.601562 -9.15625 9.03125 -10 C 8.46875 -10.84375 7.632812 -11.265625 6.53125 -11.265625 C 5.425781 -11.265625 4.597656 -10.84375 4.046875 -10 C 3.503906 -9.164062 3.234375 -8.0625 3.234375 -6.6875 L 3.234375 -6.46875 C 3.234375 -5.082031 3.507812 -3.96875 4.0625 -3.125 C 4.613281 -2.28125 5.441406 -1.859375 6.546875 -1.859375 C 7.660156 -1.859375 8.492188 -2.28125 9.046875 -3.125 C 9.609375 -3.96875 9.890625 -5.082031 9.890625 -6.46875 Z M 9.890625 -6.6875 "/></g></g></g><g fill="#ffffff" fill-opacity="1"><g transform="translate(171.314756, 92.022643)"><g><path d="M 12.515625 -6.46875 C 12.515625 -4.539062 11.960938 -2.945312 10.859375 -1.6875 C 9.765625 -0.4375 8.328125 0.1875 6.546875 0.1875 C 4.765625 0.1875 3.328125 -0.4375 2.234375 -1.6875 C 1.148438 -2.945312 0.609375 -4.539062 0.609375 -6.46875 L 0.609375 -6.671875 C 0.609375 -8.585938 1.148438 -10.175781 2.234375 -11.4375 C 3.328125 -12.695312 4.757812 -13.328125 6.53125 -13.328125 C 8.3125 -13.328125 9.753906 -12.695312 10.859375 -11.4375 C 11.960938 -10.175781 12.515625 -8.585938 12.515625 -6.671875 Z M 9.890625 -6.6875 C 9.890625 -8.050781 9.601562 -9.15625 9.03125 -10 C 8.46875 -10.84375 7.632812 -11.265625 6.53125 -11.265625 C 5.425781 -11.265625 4.597656 -10.84375 4.046875 -10 C 3.503906 -9.164062 3.234375 -8.0625 3.234375 -6.6875 L 3.234375 -6.46875 C 3.234375 -5.082031 3.507812 -3.96875 4.0625 -3.125 C 4.613281 -2.28125 5.441406 -1.859375 6.546875 -1.859375 C 7.660156 -1.859375 8.492188 -2.28125 9.046875 -3.125 C 9.609375 -3.96875 9.890625 -5.082031 9.890625 -6.46875 Z M 9.890625 -6.6875 "/></g></g></g><g fill="#ffffff" fill-opacity="1"><g transform="translate(188.65676, 92.022643)"><g/></g></g><g fill="#ffffff" fill-opacity="1"><g transform="translate(197.460356, 92.022643)"><g><path d="M 10.484375 -8.9375 L 8.515625 -8.9375 L 8.171875 -10.75 C 7.941406 -10.894531 7.601562 -11.019531 7.15625 -11.125 C 6.71875 -11.238281 6.253906 -11.296875 5.765625 -11.296875 C 5.046875 -11.296875 4.488281 -11.140625 4.09375 -10.828125 C 3.695312 -10.523438 3.5 -10.132812 3.5 -9.65625 C 3.5 -9.207031 3.703125 -8.835938 4.109375 -8.546875 C 4.523438 -8.265625 5.238281 -7.96875 6.25 -7.65625 C 7.707031 -7.25 8.804688 -6.710938 9.546875 -6.046875 C 10.296875 -5.390625 10.671875 -4.523438 10.671875 -3.453125 C 10.671875 -2.328125 10.222656 -1.4375 9.328125 -0.78125 C 8.441406 -0.132812 7.273438 0.1875 5.828125 0.1875 C 4.785156 0.1875 3.84375 0.0234375 3 -0.296875 C 2.15625 -0.628906 1.457031 -1.085938 0.90625 -1.671875 L 0.90625 -4.421875 L 2.9375 -4.421875 L 3.21875 -2.546875 C 3.488281 -2.335938 3.847656 -2.160156 4.296875 -2.015625 C 4.753906 -1.878906 5.265625 -1.8125 5.828125 -1.8125 C 6.546875 -1.8125 7.09375 -1.957031 7.46875 -2.25 C 7.84375 -2.539062 8.03125 -2.9375 8.03125 -3.4375 C 8.03125 -3.9375 7.847656 -4.335938 7.484375 -4.640625 C 7.128906 -4.953125 6.503906 -5.242188 5.609375 -5.515625 C 4.054688 -5.960938 2.878906 -6.492188 2.078125 -7.109375 C 1.273438 -7.734375 0.875 -8.585938 0.875 -9.671875 C 0.875 -10.734375 1.320312 -11.601562 2.21875 -12.28125 C 3.125 -12.957031 4.257812 -13.304688 5.625 -13.328125 C 6.632812 -13.328125 7.554688 -13.171875 8.390625 -12.859375 C 9.222656 -12.554688 9.921875 -12.148438 10.484375 -11.640625 Z M 10.484375 -8.9375 "/></g></g></g><g fill="#ffffff" fill-opacity="1"><g transform="translate(212.943045, 92.022643)"><g><path d="M 12.078125 -13.140625 L 12.078125 -9.640625 L 10.046875 -9.640625 L 9.953125 -11.109375 L 7.53125 -11.109375 L 7.53125 -1.84375 L 8.9375 -1.578125 L 8.9375 0 L 3.484375 0 L 3.484375 -1.578125 L 4.890625 -1.84375 L 4.890625 -11.109375 L 2.484375 -11.109375 L 2.375 -9.640625 L 0.359375 -9.640625 L 0.359375 -13.140625 Z M 12.078125 -13.140625 "/></g></g></g><g fill="#ffffff" fill-opacity="1"><g transform="translate(229.644225, 92.022643)"><g><path d="M 5.796875 -13.140625 L 5.796875 -11.546875 L 4.390625 -11.28125 L 4.390625 -4.421875 C 4.390625 -3.554688 4.617188 -2.90625 5.078125 -2.46875 C 5.546875 -2.039062 6.1875 -1.828125 7 -1.828125 C 7.820312 -1.828125 8.46875 -2.039062 8.9375 -2.46875 C 9.40625 -2.894531 9.640625 -3.546875 9.640625 -4.421875 L 9.640625 -11.28125 L 8.25 -11.546875 L 8.25 -13.140625 L 13.6875 -13.140625 L 13.6875 -11.546875 L 12.28125 -11.28125 L 12.28125 -4.421875 C 12.28125 -2.953125 11.796875 -1.816406 10.828125 -1.015625 C 9.859375 -0.210938 8.582031 0.1875 7 0.1875 C 5.425781 0.1875 4.15625 -0.210938 3.1875 -1.015625 C 2.226562 -1.816406 1.75 -2.953125 1.75 -4.421875 L 1.75 -11.28125 L 0.359375 -11.546875 L 0.359375 -13.140625 Z M 5.796875 -13.140625 "/></g></g></g><g fill="#ffffff" fill-opacity="1"><g transform="translate(247.879783, 92.022643)"><g><path d="M 6.421875 -13.140625 C 8.023438 -13.140625 9.347656 -12.625 10.390625 -11.59375 C 11.429688 -10.570312 11.953125 -9.257812 11.953125 -7.65625 L 11.953125 -5.484375 C 11.953125 -3.867188 11.429688 -2.550781 10.390625 -1.53125 C 9.347656 -0.507812 8.023438 0 6.421875 0 L 0.5 0 L 0.5 -1.578125 L 1.90625 -1.84375 L 1.90625 -11.28125 L 0.5 -11.546875 L 0.5 -13.140625 Z M 4.546875 -11.109375 L 4.546875 -2.015625 L 6.28125 -2.015625 C 7.226562 -2.015625 7.96875 -2.332031 8.5 -2.96875 C 9.039062 -3.613281 9.3125 -4.453125 9.3125 -5.484375 L 9.3125 -7.671875 C 9.3125 -8.691406 9.039062 -9.519531 8.5 -10.15625 C 7.96875 -10.789062 7.226562 -11.109375 6.28125 -11.109375 Z M 4.546875 -11.109375 "/></g></g></g><g fill="#ffffff" fill-opacity="1"><g transform="translate(264.887841, 92.022643)"><g><path d="M 0.5 -11.546875 L 0.5 -13.140625 L 5.9375 -13.140625 L 5.9375 -11.546875 L 4.53125 -11.28125 L 4.53125 -1.84375 L 5.9375 -1.578125 L 5.9375 0 L 0.5 0 L 0.5 -1.578125 L 1.90625 -1.84375 L 1.90625 -11.28125 Z M 0.5 -11.546875 "/></g></g></g><g fill="#ffffff" fill-opacity="1"><g transform="translate(275.59589, 92.022643)"><g><path d="M 12.515625 -6.46875 C 12.515625 -4.539062 11.960938 -2.945312 10.859375 -1.6875 C 9.765625 -0.4375 8.328125 0.1875 6.546875 0.1875 C 4.765625 0.1875 3.328125 -0.4375 2.234375 -1.6875 C 1.148438 -2.945312 0.609375 -4.539062 0.609375 -6.46875 L 0.609375 -6.671875 C 0.609375 -8.585938 1.148438 -10.175781 2.234375 -11.4375 C 3.328125 -12.695312 4.757812 -13.328125 6.53125 -13.328125 C 8.3125 -13.328125 9.753906 -12.695312 10.859375 -11.4375 C 11.960938 -10.175781 12.515625 -8.585938 12.515625 -6.671875 Z M 9.890625 -6.6875 C 9.890625 -8.050781 9.601562 -9.15625 9.03125 -10 C 8.46875 -10.84375 7.632812 -11.265625 6.53125 -11.265625 C 5.425781 -11.265625 4.597656 -10.84375 4.046875 -10 C 3.503906 -9.164062 3.234375 -8.0625 3.234375 -6.6875 L 3.234375 -6.46875 C 3.234375 -5.082031 3.507812 -3.96875 4.0625 -3.125 C 4.613281 -2.28125 5.441406 -1.859375 6.546875 -1.859375 C 7.660156 -1.859375 8.492188 -2.28125 9.046875 -3.125 C 9.609375 -3.96875 9.890625 -5.082031 9.890625 -6.46875 Z M 9.890625 -6.6875 "/></g></g></g></svg>