<svg xmlns="http://www.w3.org/2000/svg" xmlns:xlink="http://www.w3.org/1999/xlink" width="300" zoomAndPan="magnify" viewBox="0 0 224.87999 98.249997" height="131" preserveAspectRatio="xMidYMid meet" version="1.0"><defs><g/><clipPath id="f3ee484365"><path d="M 36 51.683594 L 188 51.683594 L 188 96.773438 L 36 96.773438 Z M 36 51.683594 " clip-rule="nonzero"/></clipPath></defs><g clip-path="url(#f3ee484365)"><path fill="#a86b01" d="M 98.617188 55.515625 L 109.480469 55.515625 L 106.492188 59.78125 C 104.175781 58.007812 101.480469 56.574219 98.617188 55.515625 Z M 101.207031 71.117188 L 111.550781 56.328125 L 121.894531 71.117188 L 111.550781 93.800781 Z M 116.609375 59.78125 L 113.621094 55.515625 L 124.484375 55.515625 C 121.621094 56.574219 118.925781 58.007812 116.609375 59.78125 Z M 183.789062 54.386719 C 182.046875 52.628906 179.730469 51.664062 177.261719 51.664062 C 174.796875 51.664062 172.476562 52.628906 170.734375 54.386719 C 167.785156 57.359375 167.785156 62.199219 170.734375 65.171875 C 171.925781 66.371094 173.507812 67.03125 175.191406 67.03125 C 176.734375 67.03125 178.1875 66.472656 179.332031 65.460938 C 179.425781 65.386719 179.507812 65.308594 179.589844 65.222656 C 179.609375 65.207031 179.628906 65.191406 179.648438 65.171875 L 179.640625 65.167969 C 180.132812 64.636719 180.4375 63.933594 180.4375 63.160156 C 180.4375 61.519531 179.097656 60.191406 177.445312 60.191406 C 175.796875 60.191406 174.457031 61.519531 174.457031 63.160156 C 174.457031 63.796875 174.664062 64.390625 175.011719 64.875 C 173.980469 64.828125 173.019531 64.410156 172.285156 63.667969 C 170.15625 61.523438 170.15625 58.035156 172.285156 55.890625 C 173.617188 54.550781 175.382812 53.8125 177.261719 53.8125 C 179.140625 53.8125 180.910156 54.550781 182.238281 55.890625 C 185.792969 59.472656 185.792969 65.304688 182.238281 68.886719 C 177.84375 73.320312 171.355469 73.289062 165.71875 68.804688 C 164.222656 67.613281 162.773438 66.324219 161.371094 65.082031 C 157.367188 61.527344 153.253906 57.871094 147.148438 55.515625 L 164.21875 55.515625 C 164.820312 55.515625 165.304688 55.035156 165.304688 54.441406 C 165.304688 53.847656 164.820312 53.367188 164.21875 53.367188 L 58.882812 53.367188 C 58.28125 53.367188 57.796875 53.847656 57.796875 54.441406 C 57.796875 55.035156 58.28125 55.515625 58.882812 55.515625 L 75.953125 55.515625 C 69.847656 57.871094 65.734375 61.527344 61.730469 65.082031 C 60.328125 66.324219 58.882812 67.613281 57.382812 68.804688 C 51.746094 73.289062 45.257812 73.320312 40.863281 68.886719 C 37.308594 65.304688 37.308594 59.472656 40.863281 55.890625 C 42.191406 54.550781 43.960938 53.8125 45.839844 53.8125 C 47.71875 53.8125 49.484375 54.550781 50.816406 55.890625 C 52.945312 58.035156 52.945312 61.523438 50.816406 63.667969 C 50.078125 64.414062 49.109375 64.835938 48.070312 64.875 C 48.417969 64.390625 48.625 63.800781 48.625 63.160156 C 48.625 61.519531 47.285156 60.191406 45.636719 60.191406 C 43.984375 60.191406 42.644531 61.519531 42.644531 63.160156 C 42.644531 64.132812 43.121094 64.992188 43.847656 65.535156 C 44.984375 66.5 46.40625 67.03125 47.910156 67.03125 C 49.59375 67.03125 51.175781 66.371094 52.367188 65.171875 C 55.316406 62.199219 55.316406 57.359375 52.367188 54.386719 C 50.625 52.628906 48.304688 51.664062 45.839844 51.664062 C 43.371094 51.664062 41.054688 52.628906 39.3125 54.386719 C 34.933594 58.800781 34.933594 65.980469 39.3125 70.390625 C 44.464844 75.589844 52.273438 75.621094 58.742188 70.476562 C 60.285156 69.25 61.757812 67.941406 63.179688 66.679688 C 65.46875 64.648438 67.699219 62.667969 70.25 60.933594 C 66.957031 65.566406 66.003906 71.75 68.277344 77.410156 C 69.679688 80.902344 72.355469 83.625 75.8125 85.070312 C 79.207031 86.492188 82.953125 86.511719 86.359375 85.117188 C 92.136719 82.761719 94.933594 76.109375 92.597656 70.292969 C 91.660156 67.960938 89.875 66.144531 87.566406 65.179688 C 85.296875 64.226562 82.792969 64.214844 80.515625 65.144531 C 79.1875 65.703125 78.257812 67.003906 78.257812 68.523438 C 78.257812 70.542969 79.910156 72.183594 81.949219 72.183594 C 83.988281 72.183594 85.640625 70.542969 85.640625 68.523438 C 85.640625 67.859375 85.464844 67.242188 85.15625 66.710938 C 85.6875 66.796875 86.210938 66.941406 86.71875 67.15625 C 88.488281 67.894531 89.859375 69.292969 90.582031 71.085938 C 92.480469 75.816406 90.214844 81.222656 85.53125 83.132812 C 82.664062 84.304688 79.515625 84.289062 76.660156 83.09375 C 73.742188 81.871094 71.484375 79.570312 70.296875 76.617188 C 67.203125 68.917969 70.894531 60.125 78.523438 57.011719 C 80.769531 56.09375 83.324219 55.609375 86 55.515625 L 87.960938 55.515625 C 94.050781 55.726562 100.511719 57.871094 105.257812 61.546875 L 99.070312 70.390625 C 98.855469 70.703125 98.816406 71.101562 98.972656 71.445312 L 110.5625 96.851562 C 110.738281 97.238281 111.125 97.484375 111.550781 97.484375 C 111.976562 97.484375 112.363281 97.238281 112.539062 96.851562 L 124.128906 71.445312 C 124.285156 71.101562 124.246094 70.703125 124.03125 70.390625 L 117.84375 61.546875 C 122.585938 57.871094 129.050781 55.726562 135.136719 55.515625 L 137.105469 55.515625 C 139.78125 55.609375 142.332031 56.09375 144.578125 57.011719 C 152.207031 60.125 155.898438 68.917969 152.804688 76.617188 C 151.617188 79.570312 149.359375 81.871094 146.441406 83.09375 C 143.585938 84.289062 140.4375 84.304688 137.570312 83.132812 C 132.886719 81.222656 130.621094 75.816406 132.519531 71.085938 C 133.242188 69.292969 134.613281 67.894531 136.382812 67.152344 C 136.890625 66.941406 137.414062 66.796875 137.945312 66.710938 C 137.636719 67.242188 137.460938 67.859375 137.460938 68.523438 C 137.460938 70.542969 139.113281 72.183594 141.152344 72.183594 C 143.191406 72.183594 144.84375 70.542969 144.84375 68.523438 C 144.84375 67.003906 143.914062 65.703125 142.585938 65.144531 C 140.308594 64.214844 137.804688 64.226562 135.535156 65.179688 C 133.226562 66.144531 131.441406 67.960938 130.503906 70.292969 C 128.167969 76.109375 130.96875 82.761719 136.742188 85.117188 C 140.148438 86.511719 143.894531 86.492188 147.289062 85.070312 C 150.746094 83.625 153.421875 80.902344 154.824219 77.410156 C 157.097656 71.75 156.144531 65.566406 152.851562 60.933594 C 155.402344 62.667969 157.632812 64.648438 159.921875 66.679688 C 161.34375 67.941406 162.8125 69.25 164.359375 70.476562 C 170.828125 75.621094 178.636719 75.589844 183.789062 70.390625 C 188.167969 65.980469 188.167969 58.800781 183.789062 54.386719 Z M 111.550781 65.574219 L 107.414062 71.488281 L 111.550781 80.554688 L 115.6875 71.488281 L 111.550781 65.574219 " fill-opacity="1" fill-rule="nonzero"/></g><g fill="#a86b01" fill-opacity="1"><g transform="translate(66.630492, 33.90976)"><g><path d="M 7.046875 0.339844 C 10.511719 0.339844 13.867188 -1.695312 13.867188 -5.914062 C 13.867188 -12.507812 4.519531 -12.472656 4.519531 -16.992188 C 4.519531 -18.726562 5.800781 -19.59375 7.308594 -19.59375 C 9.304688 -19.59375 11.265625 -18.046875 12.058594 -15.898438 L 12.207031 -15.9375 L 12.019531 -21.136719 C 11.90625 -20.988281 11.753906 -20.949219 11.566406 -20.949219 C 10.738281 -20.949219 9.269531 -21.816406 7.046875 -21.816406 C 3.542969 -21.816406 1.167969 -19.628906 1.167969 -16.425781 C 1.167969 -10.023438 10.550781 -10.097656 10.550781 -5.199219 C 10.550781 -3.242188 9.117188 -2.183594 7.421875 -2.183594 C 5.238281 -2.183594 2.601562 -3.917969 2.183594 -7.609375 L 2.074219 -7.609375 L 0.679688 -2.523438 C 2.183594 -0.601562 4.632812 0.339844 7.046875 0.339844 Z M 7.046875 0.339844 "/></g></g></g><g fill="#ffffff" fill-opacity="1"><g transform="translate(82.038393, 33.90976)"><g><path d="M -0.753906 -0.113281 L -0.753906 0 L 4.9375 0 L 4.9375 -0.113281 C 3.84375 -0.566406 3.65625 -1.769531 4.296875 -4.445312 L 4.484375 -5.273438 L 10.890625 -5.273438 L 11.113281 -4.445312 C 11.832031 -1.734375 11.53125 -0.527344 10.472656 -0.113281 L 10.472656 0 L 16.992188 0 L 16.992188 -0.113281 C 15.976562 -0.488281 15.449219 -1.433594 14.84375 -3.84375 L 10.097656 -21.476562 L 4.597656 -21.476562 L 4.597656 -21.363281 C 5.464844 -21.023438 5.539062 -19.707031 4.785156 -16.84375 L 1.394531 -3.84375 C 0.714844 -1.28125 0.226562 -0.453125 -0.753906 -0.113281 Z M 5.050781 -7.535156 L 7.535156 -17.746094 L 10.324219 -7.535156 Z M 5.050781 -7.535156 "/></g></g></g><g fill="#ffffff" fill-opacity="1"><g transform="translate(99.295055, 33.90976)"><g><path d="M 0.527344 -0.113281 L 0.527344 0 L 7.160156 0 L 7.160156 -0.113281 C 5.953125 -0.527344 5.539062 -1.621094 5.539062 -4.445312 L 5.539062 -12.359375 C 5.800781 -12.621094 6.140625 -12.773438 6.554688 -12.773438 C 7.914062 -12.773438 9.042969 -11.71875 10.324219 -11.71875 C 11.90625 -11.71875 13.148438 -13.339844 13.488281 -14.769531 L 13.375 -14.808594 C 13.074219 -14.316406 12.585938 -14.089844 11.980469 -14.089844 C 10.738281 -14.089844 9.570312 -14.996094 8.214844 -14.996094 C 7.082031 -14.996094 6.140625 -14.355469 5.613281 -13.339844 L 5.539062 -13.339844 L 5.539062 -19.328125 L 9.757812 -19.328125 C 11.339844 -19.328125 12.058594 -18.800781 11.945312 -17.746094 L 12.058594 -17.707031 L 14.054688 -21.777344 C 13.828125 -21.550781 13.035156 -21.476562 12.507812 -21.476562 L 0.527344 -21.476562 L 0.527344 -21.363281 C 1.734375 -20.949219 2.148438 -19.855469 2.148438 -17.03125 L 2.148438 -4.445312 C 2.148438 -1.621094 1.734375 -0.527344 0.527344 -0.113281 Z M 0.527344 -0.113281 "/></g></g></g><g fill="#ffffff" fill-opacity="1"><g transform="translate(114.592466, 33.90976)"><g><path d="M 0.527344 -0.113281 L 0.527344 0 L 7.160156 0 L 7.160156 -0.113281 C 5.953125 -0.527344 5.539062 -1.621094 5.539062 -4.445312 L 5.539062 -17.03125 C 5.539062 -19.855469 5.953125 -20.949219 7.160156 -21.363281 L 7.160156 -21.476562 L 0.527344 -21.476562 L 0.527344 -21.363281 C 1.734375 -20.949219 2.148438 -19.855469 2.148438 -17.03125 L 2.148438 -4.445312 C 2.148438 -1.621094 1.734375 -0.527344 0.527344 -0.113281 Z M 0.527344 -0.113281 "/></g></g></g><g fill="#ffffff" fill-opacity="1"><g transform="translate(123.296227, 33.90976)"><g><path d="M 0.527344 -0.113281 L 0.527344 0 L 7.160156 0 L 7.160156 -0.113281 C 5.953125 -0.527344 5.539062 -1.621094 5.539062 -4.445312 L 5.539062 -13.5625 C 8.289062 -11.566406 10.4375 -6.894531 11.339844 -3.089844 C 11.71875 -1.507812 11.417969 -0.488281 10.585938 -0.113281 L 10.625 0 L 17.03125 0 L 17.03125 -0.113281 C 16.203125 -0.488281 15.523438 -1.582031 14.921875 -3.503906 C 13.980469 -6.441406 12.359375 -9.644531 10.699219 -11.71875 C 13.488281 -11.605469 15.75 -13.675781 15.75 -16.464844 C 15.75 -19.328125 13.339844 -21.476562 9.683594 -21.476562 L 0.527344 -21.476562 L 0.527344 -21.363281 C 1.734375 -20.949219 2.148438 -19.855469 2.148438 -17.03125 L 2.148438 -4.445312 C 2.148438 -1.621094 1.734375 -0.527344 0.527344 -0.113281 Z M 5.539062 -18.652344 L 5.539062 -19.402344 L 8.027344 -19.402344 C 10.363281 -19.402344 12.019531 -18.046875 12.019531 -16.238281 C 12.019531 -14.921875 11.113281 -13.753906 9.417969 -13.753906 C 7.421875 -13.753906 5.539062 -15.789062 5.539062 -18.652344 Z M 5.539062 -18.652344 "/></g></g></g><g fill="#ffffff" fill-opacity="1"><g transform="translate(140.967343, 33.90976)"><g><path d="M -0.753906 -0.113281 L -0.753906 0 L 4.9375 0 L 4.9375 -0.113281 C 3.84375 -0.566406 3.65625 -1.769531 4.296875 -4.445312 L 4.484375 -5.273438 L 10.890625 -5.273438 L 11.113281 -4.445312 C 11.832031 -1.734375 11.53125 -0.527344 10.472656 -0.113281 L 10.472656 0 L 16.992188 0 L 16.992188 -0.113281 C 15.976562 -0.488281 15.449219 -1.433594 14.84375 -3.84375 L 10.097656 -21.476562 L 4.597656 -21.476562 L 4.597656 -21.363281 C 5.464844 -21.023438 5.539062 -19.707031 4.785156 -16.84375 L 1.394531 -3.84375 C 0.714844 -1.28125 0.226562 -0.453125 -0.753906 -0.113281 Z M 5.050781 -7.535156 L 7.535156 -17.746094 L 10.324219 -7.535156 Z M 5.050781 -7.535156 "/></g></g></g><g fill="#ffffff" fill-opacity="1"><g transform="translate(60.817536, 46.480817)"><g><path d="M 6.109375 -6.640625 L 6.109375 -4.875 L 5.078125 -4.875 L 5.03125 -5.609375 L 3.8125 -5.609375 L 3.8125 -0.9375 L 4.515625 -0.796875 L 4.515625 0 L 1.765625 0 L 1.765625 -0.796875 L 2.46875 -0.9375 L 2.46875 -5.609375 L 1.25 -5.609375 L 1.203125 -4.875 L 0.1875 -4.875 L 0.1875 -6.640625 Z M 6.109375 -6.640625 "/></g></g></g><g fill="#ffffff" fill-opacity="1"><g transform="translate(69.253334, 46.480817)"><g><path d="M 0.1875 -0.796875 L 0.65625 -0.859375 L 2.6875 -6.640625 L 4.046875 -6.640625 L 6.046875 -0.859375 L 6.53125 -0.796875 L 6.53125 0 L 4.265625 0 L 4.265625 -0.796875 L 4.734375 -0.875 L 4.4375 -1.796875 L 2.28125 -1.796875 L 1.984375 -0.875 L 2.453125 -0.796875 L 2.453125 0 L 0.1875 0 Z M 2.59375 -2.78125 L 4.125 -2.78125 L 3.375 -5.109375 L 3.34375 -5.109375 Z M 2.59375 -2.78125 "/></g></g></g><g fill="#ffffff" fill-opacity="1"><g transform="translate(78.117672, 46.480817)"><g><path d="M 6.109375 -6.640625 L 6.109375 -4.875 L 5.078125 -4.875 L 5.03125 -5.609375 L 3.8125 -5.609375 L 3.8125 -0.9375 L 4.515625 -0.796875 L 4.515625 0 L 1.765625 0 L 1.765625 -0.796875 L 2.46875 -0.9375 L 2.46875 -5.609375 L 1.25 -5.609375 L 1.203125 -4.875 L 0.1875 -4.875 L 0.1875 -6.640625 Z M 6.109375 -6.640625 "/></g></g></g><g fill="#ffffff" fill-opacity="1"><g transform="translate(86.553469, 46.480817)"><g><path d="M 6.109375 -6.640625 L 6.109375 -4.875 L 5.078125 -4.875 L 5.03125 -5.609375 L 3.8125 -5.609375 L 3.8125 -0.9375 L 4.515625 -0.796875 L 4.515625 0 L 1.765625 0 L 1.765625 -0.796875 L 2.46875 -0.9375 L 2.46875 -5.609375 L 1.25 -5.609375 L 1.203125 -4.875 L 0.1875 -4.875 L 0.1875 -6.640625 Z M 6.109375 -6.640625 "/></g></g></g><g fill="#ffffff" fill-opacity="1"><g transform="translate(94.989268, 46.480817)"><g><path d="M 6.328125 -3.265625 C 6.328125 -2.296875 6.046875 -1.492188 5.484375 -0.859375 C 4.929688 -0.222656 4.207031 0.09375 3.3125 0.09375 C 2.414062 0.09375 1.691406 -0.222656 1.140625 -0.859375 C 0.585938 -1.492188 0.3125 -2.296875 0.3125 -3.265625 L 0.3125 -3.375 C 0.3125 -4.34375 0.582031 -5.144531 1.125 -5.78125 C 1.675781 -6.414062 2.398438 -6.734375 3.296875 -6.734375 C 4.203125 -6.734375 4.929688 -6.414062 5.484375 -5.78125 C 6.046875 -5.144531 6.328125 -4.34375 6.328125 -3.375 Z M 5 -3.375 C 5 -4.0625 4.851562 -4.617188 4.5625 -5.046875 C 4.28125 -5.484375 3.859375 -5.703125 3.296875 -5.703125 C 2.742188 -5.703125 2.328125 -5.488281 2.046875 -5.0625 C 1.773438 -4.632812 1.640625 -4.070312 1.640625 -3.375 L 1.640625 -3.265625 C 1.640625 -2.566406 1.773438 -2.003906 2.046875 -1.578125 C 2.328125 -1.148438 2.75 -0.9375 3.3125 -0.9375 C 3.875 -0.9375 4.296875 -1.148438 4.578125 -1.578125 C 4.859375 -2.003906 5 -2.566406 5 -3.265625 Z M 5 -3.375 "/></g></g></g><g fill="#ffffff" fill-opacity="1"><g transform="translate(103.748747, 46.480817)"><g><path d="M 6.328125 -3.265625 C 6.328125 -2.296875 6.046875 -1.492188 5.484375 -0.859375 C 4.929688 -0.222656 4.207031 0.09375 3.3125 0.09375 C 2.414062 0.09375 1.691406 -0.222656 1.140625 -0.859375 C 0.585938 -1.492188 0.3125 -2.296875 0.3125 -3.265625 L 0.3125 -3.375 C 0.3125 -4.34375 0.582031 -5.144531 1.125 -5.78125 C 1.675781 -6.414062 2.398438 -6.734375 3.296875 -6.734375 C 4.203125 -6.734375 4.929688 -6.414062 5.484375 -5.78125 C 6.046875 -5.144531 6.328125 -4.34375 6.328125 -3.375 Z M 5 -3.375 C 5 -4.0625 4.851562 -4.617188 4.5625 -5.046875 C 4.28125 -5.484375 3.859375 -5.703125 3.296875 -5.703125 C 2.742188 -5.703125 2.328125 -5.488281 2.046875 -5.0625 C 1.773438 -4.632812 1.640625 -4.070312 1.640625 -3.375 L 1.640625 -3.265625 C 1.640625 -2.566406 1.773438 -2.003906 2.046875 -1.578125 C 2.328125 -1.148438 2.75 -0.9375 3.3125 -0.9375 C 3.875 -0.9375 4.296875 -1.148438 4.578125 -1.578125 C 4.859375 -2.003906 5 -2.566406 5 -3.265625 Z M 5 -3.375 "/></g></g></g><g fill="#ffffff" fill-opacity="1"><g transform="translate(112.508227, 46.480817)"><g/></g></g><g fill="#ffffff" fill-opacity="1"><g transform="translate(116.954941, 46.480817)"><g><path d="M 5.296875 -4.515625 L 4.296875 -4.515625 L 4.125 -5.4375 C 4.007812 -5.507812 3.84375 -5.570312 3.625 -5.625 C 3.40625 -5.675781 3.171875 -5.703125 2.921875 -5.703125 C 2.554688 -5.703125 2.269531 -5.625 2.0625 -5.46875 C 1.863281 -5.320312 1.765625 -5.125 1.765625 -4.875 C 1.765625 -4.65625 1.867188 -4.472656 2.078125 -4.328125 C 2.285156 -4.179688 2.644531 -4.03125 3.15625 -3.875 C 3.894531 -3.664062 4.453125 -3.394531 4.828125 -3.0625 C 5.203125 -2.726562 5.390625 -2.289062 5.390625 -1.75 C 5.390625 -1.175781 5.164062 -0.722656 4.71875 -0.390625 C 4.269531 -0.0664062 3.675781 0.09375 2.9375 0.09375 C 2.414062 0.09375 1.941406 0.0078125 1.515625 -0.15625 C 1.085938 -0.320312 0.734375 -0.550781 0.453125 -0.84375 L 0.453125 -2.234375 L 1.484375 -2.234375 L 1.625 -1.296875 C 1.757812 -1.179688 1.941406 -1.085938 2.171875 -1.015625 C 2.398438 -0.941406 2.65625 -0.90625 2.9375 -0.90625 C 3.300781 -0.90625 3.578125 -0.976562 3.765625 -1.125 C 3.960938 -1.28125 4.0625 -1.484375 4.0625 -1.734375 C 4.0625 -1.984375 3.96875 -2.1875 3.78125 -2.34375 C 3.601562 -2.5 3.289062 -2.644531 2.84375 -2.78125 C 2.050781 -3.007812 1.453125 -3.28125 1.046875 -3.59375 C 0.640625 -3.90625 0.4375 -4.335938 0.4375 -4.890625 C 0.4375 -5.421875 0.664062 -5.859375 1.125 -6.203125 C 1.582031 -6.546875 2.15625 -6.722656 2.84375 -6.734375 C 3.351562 -6.734375 3.816406 -6.65625 4.234375 -6.5 C 4.660156 -6.34375 5.015625 -6.132812 5.296875 -5.875 Z M 5.296875 -4.515625 "/></g></g></g><g fill="#ffffff" fill-opacity="1"><g transform="translate(124.775277, 46.480817)"><g><path d="M 6.109375 -6.640625 L 6.109375 -4.875 L 5.078125 -4.875 L 5.03125 -5.609375 L 3.8125 -5.609375 L 3.8125 -0.9375 L 4.515625 -0.796875 L 4.515625 0 L 1.765625 0 L 1.765625 -0.796875 L 2.46875 -0.9375 L 2.46875 -5.609375 L 1.25 -5.609375 L 1.203125 -4.875 L 0.1875 -4.875 L 0.1875 -6.640625 Z M 6.109375 -6.640625 "/></g></g></g><g fill="#ffffff" fill-opacity="1"><g transform="translate(133.211076, 46.480817)"><g><path d="M 2.921875 -6.640625 L 2.921875 -5.84375 L 2.21875 -5.703125 L 2.21875 -2.234375 C 2.21875 -1.796875 2.332031 -1.46875 2.5625 -1.25 C 2.800781 -1.03125 3.128906 -0.921875 3.546875 -0.921875 C 3.960938 -0.921875 4.285156 -1.03125 4.515625 -1.25 C 4.753906 -1.46875 4.875 -1.796875 4.875 -2.234375 L 4.875 -5.703125 L 4.171875 -5.84375 L 4.171875 -6.640625 L 6.921875 -6.640625 L 6.921875 -5.84375 L 6.203125 -5.703125 L 6.203125 -2.234375 C 6.203125 -1.492188 5.957031 -0.921875 5.46875 -0.515625 C 4.976562 -0.109375 4.335938 0.09375 3.546875 0.09375 C 2.742188 0.09375 2.097656 -0.109375 1.609375 -0.515625 C 1.128906 -0.921875 0.890625 -1.492188 0.890625 -2.234375 L 0.890625 -5.703125 L 0.171875 -5.84375 L 0.171875 -6.640625 Z M 2.921875 -6.640625 "/></g></g></g><g fill="#ffffff" fill-opacity="1"><g transform="translate(142.421891, 46.480817)"><g><path d="M 3.25 -6.640625 C 4.0625 -6.640625 4.726562 -6.378906 5.25 -5.859375 C 5.78125 -5.347656 6.046875 -4.6875 6.046875 -3.875 L 6.046875 -2.765625 C 6.046875 -1.953125 5.78125 -1.285156 5.25 -0.765625 C 4.726562 -0.253906 4.0625 0 3.25 0 L 0.25 0 L 0.25 -0.796875 L 0.96875 -0.9375 L 0.96875 -5.703125 L 0.25 -5.84375 L 0.25 -6.640625 Z M 2.296875 -5.609375 L 2.296875 -1.015625 L 3.171875 -1.015625 C 3.648438 -1.015625 4.023438 -1.175781 4.296875 -1.5 C 4.566406 -1.820312 4.703125 -2.242188 4.703125 -2.765625 L 4.703125 -3.875 C 4.703125 -4.394531 4.566406 -4.8125 4.296875 -5.125 C 4.023438 -5.445312 3.648438 -5.609375 3.171875 -5.609375 Z M 2.296875 -5.609375 "/></g></g></g><g fill="#ffffff" fill-opacity="1"><g transform="translate(151.012694, 46.480817)"><g><path d="M 0.25 -5.84375 L 0.25 -6.640625 L 3 -6.640625 L 3 -5.84375 L 2.296875 -5.703125 L 2.296875 -0.9375 L 3 -0.796875 L 3 0 L 0.25 0 L 0.25 -0.796875 L 0.96875 -0.9375 L 0.96875 -5.703125 Z M 0.25 -5.84375 "/></g></g></g><g fill="#ffffff" fill-opacity="1"><g transform="translate(156.421351, 46.480817)"><g><path d="M 6.328125 -3.265625 C 6.328125 -2.296875 6.046875 -1.492188 5.484375 -0.859375 C 4.929688 -0.222656 4.207031 0.09375 3.3125 0.09375 C 2.414062 0.09375 1.691406 -0.222656 1.140625 -0.859375 C 0.585938 -1.492188 0.3125 -2.296875 0.3125 -3.265625 L 0.3125 -3.375 C 0.3125 -4.34375 0.582031 -5.144531 1.125 -5.78125 C 1.675781 -6.414062 2.398438 -6.734375 3.296875 -6.734375 C 4.203125 -6.734375 4.929688 -6.414062 5.484375 -5.78125 C 6.046875 -5.144531 6.328125 -4.34375 6.328125 -3.375 Z M 5 -3.375 C 5 -4.0625 4.851562 -4.617188 4.5625 -5.046875 C 4.28125 -5.484375 3.859375 -5.703125 3.296875 -5.703125 C 2.742188 -5.703125 2.328125 -5.488281 2.046875 -5.0625 C 1.773438 -4.632812 1.640625 -4.070312 1.640625 -3.375 L 1.640625 -3.265625 C 1.640625 -2.566406 1.773438 -2.003906 2.046875 -1.578125 C 2.328125 -1.148438 2.75 -0.9375 3.3125 -0.9375 C 3.875 -0.9375 4.296875 -1.148438 4.578125 -1.578125 C 4.859375 -2.003906 5 -2.566406 5 -3.265625 Z M 5 -3.375 "/></g></g></g></svg>